<?xml version="1.0" encoding="UTF-8" standalone="no"?>
<!-- Created with Inkscape (http://www.inkscape.org/) -->

<svg
   width="120.0157mm"
   height="89.799164mm"
   viewBox="0 0 120.0157 89.799164"
   version="1.1"
   id="svg50926"
   xmlns="http://www.w3.org/2000/svg"
   xmlns:svg="http://www.w3.org/2000/svg">
  <defs
     id="defs50923" />
  <g
     aria-label="luis-barrera"
     transform="matrix(0.9323352,0,0,1.0725756,-38.458412,-50.738124)"
     id="text125-9-6"
     style="font-weight:bold;font-size:22.5778px;-inkscape-font-specification:'sans-serif Bold';stroke-width:0.28379">
    <path
       d="m 96.588211,124.90193 v -0.37554 q 0,-1.72514 -0.900664,-2.34714 -0.484106,-0.14082 -0.810599,-0.14082 h -0.270199 q -1.441064,0.15255 -1.441064,0.75108 -0.270199,0.24644 -0.315233,2.01853 0,2.40581 1.441064,2.69921 0.213908,0 0.450332,0.0469 1.215898,0 1.621196,-0.98579 0.225167,-0.59852 0.225167,-1.66646 z m -0.5404,6.07907 q -1.72252,0 -3.017225,-1.12662 h -0.04504 v 0.8215 h -4.514581 l -0.01125,-16.42995 h 4.503324 v 5.53923 q 1.294706,-1.12662 2.72451,-1.12662 h 0.585432 q 2.668218,0 4.323169,2.62879 0.76557,1.39654 0.76557,3.14517 v 0.14082 q 0,4.33047 -3.152309,5.98521 -1.080799,0.42247 -2.161598,0.42247 z"
       style="font-weight:normal;font-family:Provicali;-inkscape-font-specification:Provicali;stroke-width:0.295894"
       id="path51831" />
    <path
       d="m 106.18026,124.90193 q 0,1.06794 0.22516,1.66647 0.40531,0.98578 1.62119,0.98578 0.23644,-0.0469 0.45036,-0.0469 1.44104,-0.29339 1.44104,-2.69921 -0.0451,-1.77209 -0.31523,-2.01853 0,-0.59852 -1.44106,-0.75108 h -0.2702 q -0.32648,0 -0.81059,0.14082 -0.90067,0.622 -0.90067,2.34714 z m 0.54039,6.07907 q -1.08079,0 -2.16158,-0.42247 -3.15232,-1.65474 -3.15232,-5.98521 v -0.14081 q 0,-1.74864 0.76556,-3.14518 1.65496,-2.62878 4.32319,-2.62878 h 0.58543 q 1.42981,0 2.72452,1.12662 v -1.07967 h 4.50331 l -0.0112,11.97038 h -4.51458 v -0.82149 h -0.0451 q -1.29471,1.12662 -3.01724,1.12662 z"
       style="font-weight:normal;font-family:Provicali;-inkscape-font-specification:Provicali;stroke-width:0.295894"
       id="path51833" />
    <path
       d="m 123.13528,118.51773 1.30596,0.28165 v 4.31872 h -0.6755 q -2.61192,0 -3.42252,1.50218 -0.49537,0.73935 -0.49537,2.62878 v 3.42682 h -4.36822 V 118.7055 h 4.27816 v 2.44101 l 0.67549,-1.17356 q 1.0808,-1.45522 2.702,-1.45522 z"
       style="font-weight:normal;font-family:Provicali;-inkscape-font-specification:Provicali;stroke-width:0.295894"
       id="path51835" />
    <path
       d="m 133.26775,118.51773 1.30596,0.28165 v 4.31872 h -0.67549 q -2.61193,0 -3.42254,1.50218 -0.49536,0.73935 -0.49536,2.62878 v 3.42682 H 125.6121 V 118.7055 h 4.27816 v 2.44101 l 0.67549,-1.17356 q 1.0808,-1.45522 2.702,-1.45522 z"
       style="font-weight:normal;font-family:Provicali;-inkscape-font-specification:Provicali;stroke-width:0.295894"
       id="path51837" />
    <path
       d="m 138.8969,123.2824 h 4.14307 v -0.0352 q 0,-0.49291 -0.67551,-1.06795 -0.6192,-0.3286 -1.26092,-0.3286 -1.83512,0 -2.20664,1.43175 z m 2.07153,-4.97592 q 4.73975,0 6.03446,5.11675 0.22516,0.97405 0.22516,2.40582 v 0.22298 h -8.2861 v 0.0469 q 0.37151,0.98579 1.08078,1.3496 0.66425,0.3638 1.26094,0.3638 h 0.15762 q 0.78808,0 1.50861,-0.93886 h 4.05299 v 0.0469 q -2.24041,4.10749 -5.67419,4.10749 -3.19736,0 -4.90862,-1.97159 -1.71127,-1.98332 -1.71127,-4.31873 0,-2.71094 1.80133,-4.54171 1.80134,-1.84249 4.45829,-1.88944 z"
       style="font-weight:normal;font-family:Provicali;-inkscape-font-specification:Provicali;stroke-width:0.295894"
       id="path51839" />
    <path
       d="m 155.5592,118.51773 1.30596,0.28165 v 4.31872 h -0.6755 q -2.61192,0 -3.42253,1.50218 -0.49536,0.73935 -0.49536,2.62878 v 3.42682 h -4.36822 V 118.7055 h 4.27816 v 2.44101 l 0.6755,-1.17356 q 1.08078,-1.45522 2.70199,-1.45522 z"
       style="font-weight:normal;font-family:Provicali;-inkscape-font-specification:Provicali;stroke-width:0.295894"
       id="path51841" />
    <path
       d="m 161.83007,124.90193 q 0,1.06794 0.22517,1.66647 0.4053,0.98578 1.62119,0.98578 0.23643,-0.0469 0.45034,-0.0469 1.44106,-0.29339 1.44106,-2.69921 -0.0451,-1.77209 -0.31523,-2.01853 0,-0.59852 -1.44108,-0.75108 h -0.27018 q -0.32649,0 -0.8106,0.14082 -0.90066,0.622 -0.90066,2.34714 z m 0.5404,6.07907 q -1.08079,0 -2.1616,-0.42247 -3.15233,-1.65474 -3.15233,-5.98521 v -0.14081 q 0,-1.74864 0.76558,-3.14518 1.65497,-2.62878 4.32319,-2.62878 h 0.58544 q 1.4298,0 2.72451,1.12662 v -1.07967 h 4.50332 l -0.0112,11.97038 h -4.51456 v -0.82149 h -0.0451 q -1.29471,1.12662 -3.01723,1.12661 z"
       style="font-weight:normal;font-family:Provicali;-inkscape-font-specification:Provicali;stroke-width:0.295894"
       id="path51843" />
  </g>
  <g
     aria-label="luis-barrera"
     transform="matrix(0.9323352,0,0,1.0725756,-38.458412,-50.738124)"
     id="text125-8-0-2"
     style="font-weight:bold;font-size:22.5778px;-inkscape-font-specification:'sans-serif Bold';fill:#473c33;stroke-width:0.28379">
    <path
       d="m 96.588208,108.16685 v -0.37554 q 0,-1.72516 -0.900664,-2.34714 -0.484108,-0.14084 -0.810598,-0.14084 h -0.2702 q -1.441064,0.15257 -1.441064,0.75109 -0.2702,0.24645 -0.315231,2.01854 0,2.40582 1.441064,2.69922 0.213906,0 0.450332,0.0469 1.215897,0 1.621195,-0.98579 0.225166,-0.59852 0.225166,-1.66647 z m -0.540399,6.07908 q -1.722521,0 -3.017224,-1.12662 h -0.04504 v 0.8215 h -4.51458 l -0.01125,-16.429981 h 4.503324 v 5.539251 q 1.294705,-1.12663 2.72451,-1.12663 h 0.585431 q 2.668219,0 4.32318,2.62881 0.76558,1.39654 0.76558,3.14516 v 0.14083 q 0,4.33047 -3.15233,5.98521 -1.080798,0.42247 -2.161596,0.42247 z"
       style="font-weight:normal;font-family:Provicali;-inkscape-font-specification:Provicali;stroke-width:0.295894"
       id="path51806" />
    <path
       d="m 106.18027,108.16685 q 0,1.06795 0.22517,1.66647 0.4053,0.98579 1.62119,0.98579 0.23643,-0.0469 0.45034,-0.0469 1.44106,-0.2934 1.44106,-2.69922 -0.0451,-1.77209 -0.31523,-2.01854 0,-0.59852 -1.44107,-0.75109 h -0.27019 q -0.32649,0 -0.8106,0.14084 -0.90067,0.62198 -0.90067,2.34714 z m 0.54039,6.07908 q -1.08079,0 -2.16159,-0.42247 -3.15233,-1.65474 -3.15233,-5.98521 v -0.14083 q 0,-1.74862 0.76558,-3.14516 1.65496,-2.62881 4.32319,-2.62881 h 0.58543 q 1.42981,0 2.72451,1.12663 v -1.07968 h 4.50332 l -0.0112,11.97041 h -4.51458 v -0.8215 h -0.0451 q -1.29471,1.12662 -3.01724,1.12662 z"
       style="font-weight:normal;font-family:Provicali;-inkscape-font-specification:Provicali;stroke-width:0.295894"
       id="path51808" />
    <path
       d="m 123.13529,101.78263 1.30596,0.28165 v 4.31874 h -0.6755 q -2.61192,0 -3.42252,1.50217 -0.49537,0.73935 -0.49537,2.6288 v 3.42682 h -4.36823 V 101.9704 h 4.27816 v 2.44103 l 0.6755,-1.17358 q 1.0808,-1.45522 2.702,-1.45522 z"
       style="font-weight:normal;font-family:Provicali;-inkscape-font-specification:Provicali;stroke-width:0.295894"
       id="path51810" />
    <path
       d="m 133.26776,101.78263 1.30596,0.28165 v 4.31874 h -0.6755 q -2.61193,0 -3.42253,1.50217 -0.49536,0.73935 -0.49536,2.6288 v 3.42682 h -4.36822 V 101.9704 h 4.27816 v 2.44103 l 0.67548,-1.17358 q 1.08081,-1.45522 2.70201,-1.45522 z"
       style="font-weight:normal;font-family:Provicali;-inkscape-font-specification:Provicali;stroke-width:0.295894"
       id="path51812" />
    <path
       d="m 138.89691,106.54732 h 4.14307 v -0.0352 q 0,-0.49289 -0.67551,-1.06794 -0.6192,-0.32861 -1.26093,-0.32861 -1.83511,0 -2.20663,1.43176 z m 2.07153,-4.97594 q 4.73975,0 6.03446,5.11677 0.22516,0.97406 0.22516,2.40582 v 0.22298 h -8.28611 v 0.0469 q 0.37152,0.9858 1.08079,1.3496 0.66424,0.36381 1.26093,0.36381 h 0.15762 q 0.78809,0 1.50862,-0.93886 h 4.05299 v 0.0469 q -2.24041,4.10749 -5.67419,4.10749 -3.19737,0 -4.90862,-1.9716 -1.71127,-1.98332 -1.71127,-4.31873 0,-2.71095 1.80133,-4.54171 1.80133,-1.84251 4.45829,-1.88946 z"
       style="font-weight:normal;font-family:Provicali;-inkscape-font-specification:Provicali;stroke-width:0.295894"
       id="path51814" />
    <path
       d="m 155.55921,101.78263 1.30596,0.28165 v 4.31874 h -0.6755 q -2.61192,0 -3.42253,1.50217 -0.49536,0.73935 -0.49536,2.6288 v 3.42682 h -4.36823 V 101.9704 h 4.27816 v 2.44103 l 0.67551,-1.17358 q 1.08078,-1.45522 2.70199,-1.45522 z"
       style="font-weight:normal;font-family:Provicali;-inkscape-font-specification:Provicali;stroke-width:0.295894"
       id="path51816" />
    <path
       d="m 161.83007,108.16685 q 0,1.06795 0.22518,1.66647 0.40529,0.98579 1.62119,0.98579 0.23643,-0.0469 0.45033,-0.0469 1.44107,-0.2934 1.44107,-2.69922 -0.0451,-1.77209 -0.31524,-2.01854 0,-0.59852 -1.44107,-0.75109 h -0.27018 q -0.3265,0 -0.8106,0.14084 -0.90068,0.62198 -0.90068,2.34714 z m 0.54041,6.07908 q -1.08079,0 -2.1616,-0.42247 -3.15233,-1.65474 -3.15233,-5.98521 v -0.14083 q 0,-1.74862 0.76558,-3.14516 1.65497,-2.62881 4.32319,-2.62881 h 0.58544 q 1.4298,0 2.72451,1.12663 v -1.07968 h 4.50332 l -0.0112,11.97041 h -4.51457 v -0.8215 h -0.0451 q -1.2947,1.12662 -3.01723,1.12662 z"
       style="font-weight:normal;font-family:Provicali;-inkscape-font-specification:Provicali;stroke-width:0.295894"
       id="path51818" />
  </g>
  <g
     aria-label="luis-barrera"
     transform="matrix(0.9323352,0,0,1.0725756,-38.458412,-50.738124)"
     id="text125-6-3-3"
     style="font-weight:bold;font-size:22.5778px;-inkscape-font-specification:'sans-serif Bold';display:inline;fill:#fda769;stroke-width:0.28379">
    <path
       d="m 96.588209,91.431752 v -0.37555 q 0,-1.72514 -0.900664,-2.347131 -0.484108,-0.140828 -0.810598,-0.140828 h -0.2702 q -1.441065,0.152563 -1.441065,0.751084 -0.270198,0.246448 -0.315232,2.018535 0,2.40581 1.441064,2.6992 0.213909,0 0.450333,0.0469 1.215897,0 1.621196,-0.98579 0.225167,-0.59852 0.225167,-1.66647 z m -0.5404,6.079077 q -1.72252,0 -3.017225,-1.12663 h -0.04504 v 0.8215 h -4.514579 l -0.01125,-16.429947 h 4.503324 v 5.53924 q 1.294705,-1.126625 2.72451,-1.126625 h 0.585432 q 2.668219,0 4.323169,2.628793 0.76558,1.396546 0.76558,3.145162 v 0.14083 q 0,4.330457 -3.15232,5.985187 -1.080798,0.42249 -2.161596,0.42249 z"
       style="font-weight:normal;font-family:Provicali;-inkscape-font-specification:Provicali;stroke-width:0.295894"
       id="path51781" />
    <path
       d="m 106.18026,91.431752 q 0,1.06794 0.22517,1.66646 0.40531,0.9858 1.62119,0.9858 0.23644,-0.0469 0.45035,-0.0469 1.44105,-0.29339 1.44105,-2.69921 -0.0451,-1.772084 -0.31523,-2.018532 0,-0.598521 -1.44107,-0.751084 h -0.27019 q -0.32649,0 -0.81059,0.140828 -0.90068,0.621991 -0.90068,2.347138 z m 0.54041,6.079077 q -1.08081,0 -2.1616,-0.42249 -3.15232,-1.65473 -3.15232,-5.985187 v -0.14083 q 0,-1.748616 0.76556,-3.145162 1.65497,-2.628793 4.32319,-2.628793 h 0.58543 q 1.42981,0 2.72451,1.126625 V 85.23531 h 4.50332 l -0.0112,11.970389 h -4.51458 v -0.8215 h -0.0451 q -1.29471,1.12663 -3.01723,1.12663 z"
       style="font-weight:normal;font-family:Provicali;-inkscape-font-specification:Provicali;stroke-width:0.295894"
       id="path51783" />
    <path
       d="m 123.13529,85.047539 1.30595,0.281657 v 4.318729 h -0.67549 q -2.61192,0 -3.42251,1.502167 -0.49538,0.73935 -0.49538,2.6288 v 3.426807 h -4.36823 V 85.23531 h 4.27816 v 2.441021 l 0.6755,-1.173568 q 1.0808,-1.455224 2.702,-1.455224 z"
       style="font-weight:normal;font-family:Provicali;-inkscape-font-specification:Provicali;stroke-width:0.295894"
       id="path51785" />
    <path
       d="m 133.26776,85.047539 1.30597,0.281657 v 4.318729 h -0.67551 q -2.61193,0 -3.42253,1.502167 -0.49536,0.73935 -0.49536,2.6288 v 3.426807 h -4.36821 V 85.23531 h 4.27816 v 2.441021 l 0.67548,-1.173568 q 1.08081,-1.455224 2.702,-1.455224 z"
       style="font-weight:normal;font-family:Provicali;-inkscape-font-specification:Provicali;stroke-width:0.295894"
       id="path51787" />
    <path
       d="m 138.89691,89.812225 h 4.14307 v -0.0352 q 0,-0.492898 -0.67551,-1.067947 -0.6192,-0.328599 -1.26093,-0.328599 -1.8351,0 -2.20663,1.431753 z m 2.07153,-4.975927 q 4.73976,0 6.03446,5.116755 0.22516,0.974059 0.22516,2.405819 v 0.22297 h -8.28611 v 0.0469 q 0.37152,0.9858 1.08079,1.3496 0.66424,0.36382 1.26093,0.36382 h 0.15762 q 0.78808,0 1.50862,-0.93886 h 4.05299 v 0.047 q -2.24041,4.107497 -5.67419,4.107497 -3.19737,0 -4.90862,-1.97161 -1.71127,-1.983327 -1.71127,-4.318727 0,-2.710939 1.80133,-4.541705 1.80133,-1.842502 4.45829,-1.889444 z"
       style="font-weight:normal;font-family:Provicali;-inkscape-font-specification:Provicali;stroke-width:0.295894"
       id="path51789" />
    <path
       d="m 155.55921,85.047539 1.30596,0.281657 v 4.318729 h -0.6755 q -2.61192,0 -3.42253,1.502167 -0.49536,0.73935 -0.49536,2.6288 v 3.426807 h -4.36823 V 85.23531 h 4.27816 v 2.441021 l 0.6755,-1.173568 q 1.08079,-1.455224 2.702,-1.455224 z"
       style="font-weight:normal;font-family:Provicali;-inkscape-font-specification:Provicali;stroke-width:0.295894"
       id="path51791" />
    <path
       d="m 161.83007,91.431752 q 0,1.06794 0.22518,1.66646 0.40529,0.9858 1.62119,0.9858 0.23643,-0.0469 0.45033,-0.0469 1.44107,-0.29339 1.44107,-2.69921 -0.0451,-1.772084 -0.31524,-2.018532 0,-0.598521 -1.44107,-0.751084 h -0.27018 q -0.3265,0 -0.8106,0.140828 -0.90068,0.621991 -0.90068,2.347138 z m 0.54041,6.079077 q -1.0808,0 -2.1616,-0.42249 -3.15233,-1.65473 -3.15233,-5.985187 v -0.14083 q 0,-1.748616 0.76558,-3.145162 1.65497,-2.628793 4.32319,-2.628793 h 0.58544 q 1.4298,0 2.72451,1.126625 V 85.23531 h 4.50332 l -0.0112,11.970389 h -4.51457 v -0.8215 h -0.0451 q -1.2947,1.12663 -3.01723,1.12663 z"
       style="font-weight:normal;font-family:Provicali;-inkscape-font-specification:Provicali;stroke-width:0.295894"
       id="path51793" />
  </g>
  <g
     aria-label="luis-barrera"
     transform="matrix(0.9323352,0,0,1.0725756,-38.458412,-50.738124)"
     id="text125-5"
     style="font-weight:bold;font-size:22.5778px;-inkscape-font-specification:'sans-serif Bold';display:inline;fill:#fec868;stroke-width:0.28379">
    <path
       d="m 96.588198,74.696668 v -0.375542 q 0,-1.725146 -0.900664,-2.347136 -0.484108,-0.140829 -0.810598,-0.140829 h -0.270199 q -1.441064,0.152564 -1.441064,0.751084 -0.2702,0.246449 -0.315233,2.018538 0,2.405815 1.441064,2.699206 0.213908,0 0.450331,0.04695 1.215899,0 1.621197,-0.985798 0.225166,-0.59852 0.225166,-1.666467 z m -0.540399,6.079084 q -1.72252,0 -3.017226,-1.126625 h -0.04503 v 0.821498 h -4.514578 l -0.01125,-16.429958 h 4.503323 v 5.539243 q 1.294706,-1.126626 2.724511,-1.126626 h 0.585433 q 2.668218,0 4.323168,2.628794 0.76557,1.396545 0.76557,3.145163 v 0.140828 q 0,4.330467 -3.15231,5.985199 -1.080798,0.422484 -2.161596,0.422484 z"
       style="font-weight:normal;font-family:Provicali;-inkscape-font-specification:Provicali;stroke-width:0.295894"
       id="path51756" />
    <path
       d="m 106.18026,74.696668 q 0,1.067947 0.22517,1.666467 0.40529,0.985798 1.62119,0.985798 0.23643,-0.04695 0.45034,-0.04695 1.44105,-0.293391 1.44105,-2.699206 -0.0451,-1.772089 -0.31523,-2.018538 0,-0.59852 -1.44105,-0.751084 h -0.2702 q -0.3265,0 -0.81061,0.140828 -0.90066,0.621991 -0.90066,2.347137 z m 0.5404,6.079084 q -1.08081,0 -2.16159,-0.422484 -3.15233,-1.654732 -3.15233,-5.985199 v -0.140828 q 0,-1.748618 0.76556,-3.145163 1.65498,-2.628794 4.3232,-2.628794 h 0.58542 q 1.42981,0 2.72452,1.126626 v -1.079683 h 4.50332 l -0.0112,11.970398 h -4.51458 v -0.821498 h -0.0451 q -1.2947,1.126625 -3.01722,1.126625 z"
       style="font-weight:normal;font-family:Provicali;-inkscape-font-specification:Provicali;stroke-width:0.295894"
       id="path51758" />
    <path
       d="m 123.13527,68.312456 1.30596,0.281656 v 4.318732 h -0.67549 q -2.61193,0 -3.42252,1.502168 -0.49538,0.739348 -0.49538,2.628793 v 3.42682 h -4.36822 V 68.500227 h 4.27816 v 2.441022 l 0.6755,-1.173569 q 1.08079,-1.455224 2.70199,-1.455224 z"
       style="font-weight:normal;font-family:Provicali;-inkscape-font-specification:Provicali;stroke-width:0.295894"
       id="path51760" />
    <path
       d="m 133.26775,68.312456 1.30597,0.281656 v 4.318732 h -0.6755 q -2.61193,0 -3.42253,1.502168 -0.49536,0.739348 -0.49536,2.628793 v 3.42682 H 125.6121 V 68.500227 h 4.27816 v 2.441022 l 0.67549,-1.173569 q 1.0808,-1.455224 2.702,-1.455224 z"
       style="font-weight:normal;font-family:Provicali;-inkscape-font-specification:Provicali;stroke-width:0.295894"
       id="path51762" />
    <path
       d="m 138.89689,73.077143 h 4.14307 v -0.0352 q 0,-0.492899 -0.67551,-1.067947 -0.61919,-0.3286 -1.26092,-0.3286 -1.8351,0 -2.20664,1.431753 z m 2.07154,-4.97593 q 4.73975,0 6.03445,5.116759 0.22517,0.974062 0.22517,2.405815 v 0.222978 h -8.28611 v 0.04695 q 0.37151,0.985798 1.08078,1.349605 0.66425,0.363806 1.26094,0.363806 h 0.15762 q 0.78808,0 1.50862,-0.938855 h 4.05298 v 0.04695 q -2.24041,4.10749 -5.67418,4.10749 -3.19737,0 -4.90863,-1.971596 -1.71126,-1.98333 -1.71126,-4.318731 0,-2.710943 1.80133,-4.54171 1.80133,-1.842503 4.45829,-1.889445 z"
       style="font-weight:normal;font-family:Provicali;-inkscape-font-specification:Provicali;stroke-width:0.295894"
       id="path51764" />
    <path
       d="m 155.5592,68.312456 1.30596,0.281656 v 4.318732 h -0.67549 q -2.61193,0 -3.42254,1.502168 -0.49536,0.739348 -0.49536,2.628793 v 3.42682 h -4.36822 V 68.500227 h 4.27816 v 2.441022 l 0.6755,-1.173569 q 1.08078,-1.455224 2.70199,-1.455224 z"
       style="font-weight:normal;font-family:Provicali;-inkscape-font-specification:Provicali;stroke-width:0.295894"
       id="path51766" />
    <path
       d="m 161.84696,74.395748 q 0,1.067947 0.22517,1.666467 0.4053,0.985798 1.6212,0.985798 0.23643,-0.04695 0.45033,-0.04695 1.44106,-0.293391 1.44106,-2.699206 -0.0451,-1.772089 -0.31523,-2.018538 0,-0.59852 -1.44107,-0.751084 h -0.27019 q -0.32649,0 -0.8106,0.140828 -0.90067,0.621991 -0.90067,2.347137 z m 0.54041,6.079084 q -1.08081,0 -2.1616,-0.422484 -3.15233,-1.654732 -3.15233,-5.985199 v -0.140828 q 0,-1.748618 0.76556,-3.145163 1.65499,-2.628794 4.3232,-2.628794 h 0.58543 q 1.4298,0 2.72452,1.126626 v -1.079683 h 4.50331 l -0.0112,11.970398 h -4.51457 v -0.821498 h -0.0451 q -1.29469,1.126625 -3.01721,1.126625 z"
       style="font-weight:normal;font-family:Provicali;-inkscape-font-specification:Provicali;stroke-width:0.295894"
       id="path51768" />
  </g>
  <g
     aria-label="luis-barrera"
     transform="matrix(0.9323352,0,0,1.0725756,-38.458412,-50.738124)"
     id="text125-8-2"
     style="font-weight:bold;font-size:22.5778px;-inkscape-font-specification:'sans-serif Bold';display:inline;stroke-width:0.28379">
    <a
       id="a51989"
       transform="matrix(1.021225,0,0,1.0645268,-2.3576338,-4.1470255)">
      <path
         d="m 96.88937,58.34326 v -0.352779 q 0,-1.620574 -0.881946,-2.204863 -0.474045,-0.132292 -0.79375,-0.132292 H 94.94909 q -1.411112,0.143316 -1.411112,0.705556 -0.264584,0.231511 -0.308681,1.896183 0,2.259985 1.411112,2.535593 0.209462,0 0.440973,0.0441 1.190626,0 1.587501,-0.926043 0.220487,-0.56224 0.220487,-1.565452 z m -0.529167,5.710596 q -1.686721,0 -2.954517,-1.058335 h -0.0441 v 0.771702 H 88.940837 L 88.929813,48.33318 h 4.409727 v 5.203477 q 1.267796,-1.058334 2.667884,-1.058334 h 0.573265 q 2.612763,0 4.233341,2.469447 0.74965,1.311894 0.74965,2.954517 v 0.132292 q 0,4.067973 -3.086809,5.622401 -1.058334,0.396876 -2.116668,0.396876 z"
         style="fill:#abc270"
         id="path51731" />
    </a>
    <path
       d="m 106.18029,57.960938 q 0,1.067946 0.22516,1.666466 0.4053,0.985797 1.62119,0.985797 0.23644,-0.04695 0.45035,-0.04695 1.44105,-0.293391 1.44105,-2.699206 -0.0451,-1.772088 -0.31523,-2.018538 0,-0.59852 -1.44105,-0.751083 h -0.27021 q -0.32649,0 -0.8106,0.140829 -0.90066,0.621991 -0.90066,2.347135 z m 0.54039,6.079082 q -1.08079,0 -2.16158,-0.422485 -3.15233,-1.65473 -3.15233,-5.985196 v -0.140828 q 0,-1.748616 0.76556,-3.145163 1.65497,-2.628793 4.3232,-2.628793 h 0.58542 q 1.42981,0 2.72452,1.126625 v -1.079682 h 4.50331 l -0.0112,11.970394 H 109.783 v -0.821497 h -0.0451 q -1.29471,1.126625 -3.01723,1.126625 z"
       style="fill:#abc270;stroke-width:0.295894"
       id="path51733" />
    <path
       d="m 123.1353,51.576727 1.30596,0.281657 v 4.31873 h -0.6755 q -2.61192,0 -3.42251,1.502168 -0.49538,0.739347 -0.49538,2.628792 v 3.426818 h -4.36822 V 51.764498 h 4.27816 v 2.441022 l 0.67551,-1.173568 q 1.08078,-1.455225 2.70198,-1.455225 z"
       style="fill:#abc270;stroke-width:0.295894"
       id="path51735" />
    <path
       d="m 133.26777,51.576727 1.30597,0.281657 v 4.31873 h -0.67549 q -2.61194,0 -3.42254,1.502168 -0.49536,0.739347 -0.49536,2.628792 v 3.426818 h -4.36822 V 51.764498 h 4.27816 v 2.441022 l 0.67549,-1.173568 q 1.0808,-1.455225 2.70199,-1.455225 z"
       style="fill:#abc270;stroke-width:0.295894"
       id="path51737" />
    <path
       d="m 138.89692,56.341414 h 4.14307 v -0.03521 q 0,-0.492898 -0.67551,-1.067947 -0.6192,-0.328599 -1.26092,-0.328599 -1.83511,0 -2.20664,1.431752 z m 2.07153,-4.97593 q 4.73976,0 6.03446,5.116758 0.22516,0.974061 0.22516,2.405814 v 0.222979 h -8.2861 v 0.04695 q 0.37151,0.985797 1.08078,1.349603 0.66425,0.363807 1.26094,0.363807 h 0.15762 q 0.78808,0 1.50861,-0.938855 h 4.05299 v 0.04695 q -2.24041,4.107488 -5.67419,4.107488 -3.19735,0 -4.90862,-1.971594 -1.71127,-1.98333 -1.71127,-4.318731 0,-2.710941 1.80134,-4.541709 1.80133,-1.842501 4.45828,-1.889444 z"
       style="fill:#abc270;stroke-width:0.295894"
       id="path51739" />
    <path
       d="m 155.55923,51.576727 1.30596,0.281657 v 4.31873 h -0.6755 q -2.61192,0 -3.42252,1.502168 -0.49537,0.739347 -0.49537,2.628792 v 3.426818 h -4.36822 V 51.764498 h 4.27816 v 2.441022 l 0.6755,-1.173568 q 1.08078,-1.455225 2.70199,-1.455225 z"
       style="fill:#abc270;stroke-width:0.295894"
       id="path51741" />
    <path
       d="m 161.8301,57.960938 q 0,1.067946 0.22517,1.666466 0.4053,0.985797 1.62119,0.985797 0.23643,-0.04695 0.45034,-0.04695 1.44106,-0.293391 1.44106,-2.699206 -0.0451,-1.772088 -0.31523,-2.018538 0,-0.59852 -1.44107,-0.751083 h -0.27019 q -0.32649,0 -0.8106,0.140829 -0.90067,0.621991 -0.90067,2.347135 z m 0.5404,6.079082 q -1.0808,0 -2.1616,-0.422485 -3.15232,-1.65473 -3.15232,-5.985196 v -0.140828 q 0,-1.748616 0.76556,-3.145163 1.65497,-2.628793 4.3232,-2.628793 h 0.58543 q 1.4298,0 2.72452,1.126625 v -1.079682 h 4.50331 l -0.0112,11.970394 h -4.51458 v -0.821497 h -0.0451 q -1.2947,1.126625 -3.01722,1.126625 z"
       style="fill:#abc270;stroke-width:0.295894"
       id="path51743" />
  </g>
  <g
     id="g51851"
     style="font-weight:bold;font-size:22.5778px;-inkscape-font-specification:'sans-serif Bold';display:inline;stroke-width:0.28379"
     transform="matrix(0.9323352,0,0,1.0725756,-38.458412,-50.738124)">
    <path
       d="M 41.249555,63.739748 V 47.536401 h 4.495208 v 16.203347 z"
       style="font-weight:normal;font-family:Provicali;-inkscape-font-specification:Provicali;stroke-width:0.293581"
       id="path51721" />
    <path
       d="m 46.868566,51.934452 h 4.225496 v 6.08783 q 0,1.724499 1.168755,2.129582 0.247236,0.0463 0.404568,0.0463 h 0.269713 q 1.191231,0 1.573323,-1.435153 0.04496,-0.173608 0.04496,-0.416657 v -6.4119 h 4.270448 v 11.874739 h -4.270448 v -1.620334 q -1.528371,1.898106 -3.461312,1.898106 h -0.314665 q -2.775791,0 -3.731023,-2.870308 -0.179808,-0.868035 -0.179808,-1.574039 z"
       style="font-weight:normal;font-family:Provicali;-inkscape-font-specification:Provicali;stroke-width:0.293581"
       id="path51723" />
    <path
       d="m 64.422358,51.934452 v 11.805296 h -4.49521 V 51.934452 Z m -4.49521,-1.157381 v -3.24067 h 4.49521 v 3.24067 z"
       style="font-weight:normal;font-family:Provicali;-inkscape-font-specification:Provicali;stroke-width:0.293581"
       id="path51725" />
    <path
       d="m 70.434699,51.402057 h 0.528187 q 2.427413,0 4.933492,1.388858 0,0.115738 -1.472181,2.777717 l -1.53961,-0.439805 Q 71.783261,54.80476 71.030314,54.80476 h -0.280951 q -0.685519,0 -0.809138,0.601838 0,0.381937 1.798084,0.78702 2.562269,0.717576 3.393884,1.504597 1.045135,0.937479 1.045135,2.499944 0,3.229097 -3.697309,4.02769 -0.820375,0.09259 -1.326086,0.09259 h -0.337141 q -3.180361,0 -5.832534,-1.805515 v -0.0463 q 1.595799,-2.580962 1.663227,-2.592535 h 0.04495 q 1.899226,1.041643 3.820928,1.041643 h 0.28095 q 1.000185,0 1.000185,-0.462953 0,-0.648133 -2.371223,-1.111086 -2.607222,-0.717578 -3.393883,-2.013845 -0.471997,-0.856463 -0.471997,-1.805516 0,-3.136504 3.697309,-4.027689 0.707996,-0.09259 1.179993,-0.09259 z"
       style="font-weight:normal;font-family:Provicali;-inkscape-font-specification:Provicali;stroke-width:0.293581"
       id="path51727" />
    <path
       d="m 77.368557,53.832559 h 10.091745 v 3.472146 H 77.368557 Z"
       style="font-weight:normal;font-family:Provicali;-inkscape-font-specification:Provicali;stroke-width:0.293581"
       id="path51729" />
  </g>
</svg>
